<svg width="20" height="19" viewBox="0 0 20 19" fill="none" xmlns="http://www.w3.org/2000/svg">
<path d="M19.2089 6.67501L13.2581 5.81016L10.5979 0.417196C10.5253 0.26954 10.4057 0.150009 10.2581 0.0773524C9.88778 -0.10546 9.43778 0.0468837 9.25262 0.417196L6.59246 5.81016L0.641682 6.67501C0.47762 6.69845 0.32762 6.77579 0.212776 6.89298C0.0739361 7.03568 -0.00257088 7.22766 6.5967e-05 7.42675C0.00270281 7.62583 0.0842678 7.81572 0.226838 7.9547L4.53231 12.1524L3.51512 18.0797C3.49127 18.2176 3.50652 18.3594 3.55916 18.489C3.6118 18.6187 3.69972 18.731 3.81294 18.8132C3.92616 18.8955 4.06015 18.9443 4.19973 18.9543C4.3393 18.9642 4.47888 18.9349 4.60262 18.8695L9.92528 16.0711L15.2479 18.8695C15.3932 18.9469 15.562 18.9727 15.7237 18.9445C16.1315 18.8742 16.4057 18.4875 16.3354 18.0797L15.3182 12.1524L19.6237 7.9547C19.7409 7.83985 19.8182 7.68985 19.8417 7.52579C19.905 7.11563 19.619 6.73595 19.2089 6.67501ZM13.5065 11.5617L14.3526 16.4906L9.92528 14.1656L5.49793 16.493L6.34403 11.5641L2.76278 8.07188L7.71278 7.35235L9.92528 2.86876L12.1378 7.35235L17.0878 8.07188L13.5065 11.5617Z" fill="#E5E5E5"/>
</svg>
